<svg id="Layer_1" data-name="Layer 1" xmlns="http://www.w3.org/2000/svg" viewBox="0 0 32 32"><defs><style>.cls-1{fill:#ff4871;}</style></defs><title>billing</title><g id="Group_5087" data-name="Group 5087"><g id="Group_5078" data-name="Group 5078"><g id="Group_5062" data-name="Group 5062"><g id="Group_5060" data-name="Group 5060"><g id="Group_5026" data-name="Group 5026"><g id="Group_4956" data-name="Group 4956"><g id="Path_6344" data-name="Path 6344"><path class="cls-1" d="M26.86,14.5h-15V11.56h15Zm-14.31-.36H26.19V11.92H12.55Z"/><path class="cls-1" d="M27,14.63H11.75V11.44H27Zm-15-.26H26.73V11.69H12Zm14.32-.1H12.42V11.79h13.9ZM12.67,14H26.06v-2H12.67Z"/></g></g><g id="Group_4957" data-name="Group 4957"><g id="Path_6345" data-name="Path 6345"><path class="cls-1" d="M29.87,28.75H8.62V9.66H29.87ZM9.55,28.07H29V10.33H9.55Z"/><path class="cls-1" d="M30,28.87H8.49V9.53H30ZM8.75,28.62h21V9.78h-21Zm20.32-.42H9.42v-18H29.07ZM9.67,28H28.82V10.46H9.67Z"/></g></g><g id="Group_4958" data-name="Group 4958"><g id="Rectangle_360" data-name="Rectangle 360"><rect class="cls-1" x="11.88" y="15.85" width="3.94" height="2.11"/><path class="cls-1" d="M16,18.08h-4.2V15.72H16ZM12,17.83h3.69V16H12Z"/></g></g><g id="Group_4959" data-name="Group 4959"><g id="Rectangle_361" data-name="Rectangle 361"><rect class="cls-1" x="17.4" y="15.85" width="3.94" height="2.11"/><path class="cls-1" d="M21.47,18.08h-4.2V15.72h4.2Zm-3.95-.25h3.69V16H17.52Z"/></g></g><g id="Group_4960" data-name="Group 4960"><g id="Rectangle_362" data-name="Rectangle 362"><rect class="cls-1" x="22.92" y="15.85" width="3.94" height="2.11"/><path class="cls-1" d="M27,18.08h-4.2V15.72H27ZM23,17.83h3.69V16H23Z"/></g></g><g id="Group_4962" data-name="Group 4962"><g id="Rectangle_364" data-name="Rectangle 364"><rect class="cls-1" x="11.88" y="20.05" width="3.94" height="2.11"/><path class="cls-1" d="M16,22.28h-4.2V19.92H16ZM12,22h3.69V20.18H12Z"/></g></g><g id="Group_4963" data-name="Group 4963"><g id="Rectangle_365" data-name="Rectangle 365"><rect class="cls-1" x="17.4" y="20.05" width="3.94" height="2.11"/><path class="cls-1" d="M21.47,22.28h-4.2V19.92h4.2ZM17.52,22h3.69V20.18H17.52Z"/></g></g><g id="Group_4964" data-name="Group 4964"><g id="Rectangle_366" data-name="Rectangle 366"><rect class="cls-1" x="22.92" y="20.05" width="3.94" height="2.11"/><path class="cls-1" d="M27,22.28h-4.2V19.92H27ZM23,22h3.69V20.18H23Z"/></g></g><g id="Group_4966" data-name="Group 4966"><g id="Rectangle_368" data-name="Rectangle 368"><rect class="cls-1" x="11.88" y="24.25" width="3.94" height="2.11"/><path class="cls-1" d="M16,26.48h-4.2V24.12H16ZM12,26.23h3.69V24.38H12Z"/></g></g><g id="Group_4967" data-name="Group 4967"><g id="Rectangle_369" data-name="Rectangle 369"><rect class="cls-1" x="17.4" y="24.25" width="3.94" height="2.11"/><path class="cls-1" d="M21.47,26.48h-4.2V24.12h4.2Zm-3.95-.25h3.69V24.38H17.52Z"/></g></g><g id="Group_4968" data-name="Group 4968"><g id="Rectangle_370" data-name="Rectangle 370"><rect class="cls-1" x="22.92" y="24.25" width="3.94" height="2.11"/><path class="cls-1" d="M27,26.48h-4.2V24.12H27ZM23,26.23h3.69V24.38H23Z"/></g></g></g><g id="Path_6385" data-name="Path 6385"><path class="cls-1" d="M22.5,8H21.4a4.37,4.37,0,0,0-3.63-1.77A4.65,4.65,0,0,0,16,6.5l-.35.13-.21-.3a5.69,5.69,0,0,0-4.66-2.25c-3,0-5.42,2.05-5.42,4.58,0,.06,0,.12,0,.18v.34l-.31.12A3.21,3.21,0,0,0,3,12.17a3.33,3.33,0,0,0,2.88,3.09l-.2.93a4.27,4.27,0,0,1-3.63-4A4.09,4.09,0,0,1,4.46,8.55c.06-3,2.89-5.42,6.36-5.42A6.74,6.74,0,0,1,16,5.5a5.51,5.51,0,0,1,1.71-.27h0A5.24,5.24,0,0,1,22.5,8Z"/></g></g></g></g></g></svg>