<svg id="Layer_1" data-name="Layer 1" xmlns="http://www.w3.org/2000/svg" viewBox="0 0 32 32"><defs><style>.cls-1{fill:#0078d7;}</style></defs><title>calendar</title><g id="Group_5082" data-name="Group 5082"><g id="Group_4989" data-name="Group 4989"><path id="Path_6180" data-name="Path 6180" class="cls-1" d="M26.85,9.71V12H25.52V9.71H24.19V12H22.86V9.71H21.53V12H20.2V9.71H18.87V12H17.54V9.71H16.21V12H14.88V9.71H13.55V12H12.21V9.71H9.55v1H8.22V30h20V28.67h1.33v-19Zm.67,19.62H8.89V15h.66V28.67h18ZM28.85,28H10.22V13.7H28.85Z"/><rect id="Rectangle_284" data-name="Rectangle 284" class="cls-1" x="15.21" y="8.37" width="0.67" height="3.33"/><rect id="Rectangle_285" data-name="Rectangle 285" class="cls-1" x="17.87" y="8.37" width="0.67" height="3.33"/><rect id="Rectangle_286" data-name="Rectangle 286" class="cls-1" x="20.53" y="8.37" width="0.67" height="3.33"/><rect id="Rectangle_287" data-name="Rectangle 287" class="cls-1" x="23.19" y="8.37" width="0.67" height="3.33"/><rect id="Rectangle_288" data-name="Rectangle 288" class="cls-1" x="25.86" y="8.37" width="0.67" height="3.33"/><rect id="Rectangle_289" data-name="Rectangle 289" class="cls-1" x="12.21" y="16.36" width="1.33" height="1.33"/><rect id="Rectangle_290" data-name="Rectangle 290" class="cls-1" x="14.88" y="16.36" width="1.33" height="1.33"/><rect id="Rectangle_291" data-name="Rectangle 291" class="cls-1" x="17.54" y="16.36" width="1.33" height="1.33"/><rect id="Rectangle_292" data-name="Rectangle 292" class="cls-1" x="20.2" y="16.36" width="1.33" height="1.33"/><rect id="Rectangle_293" data-name="Rectangle 293" class="cls-1" x="22.86" y="16.36" width="1.33" height="1.33"/><rect id="Rectangle_294" data-name="Rectangle 294" class="cls-1" x="25.52" y="16.36" width="1.33" height="1.33"/><rect id="Rectangle_295" data-name="Rectangle 295" class="cls-1" x="12.21" y="19.02" width="1.33" height="1.33"/><rect id="Rectangle_296" data-name="Rectangle 296" class="cls-1" x="14.88" y="19.02" width="1.33" height="1.33"/><rect id="Rectangle_297" data-name="Rectangle 297" class="cls-1" x="17.54" y="19.02" width="1.33" height="1.33"/><rect id="Rectangle_298" data-name="Rectangle 298" class="cls-1" x="20.2" y="19.02" width="1.33" height="1.33"/><rect id="Rectangle_299" data-name="Rectangle 299" class="cls-1" x="22.86" y="19.02" width="1.33" height="1.33"/><rect id="Rectangle_300" data-name="Rectangle 300" class="cls-1" x="25.52" y="19.02" width="1.33" height="1.33"/><rect id="Rectangle_301" data-name="Rectangle 301" class="cls-1" x="12.21" y="21.68" width="1.33" height="1.33"/><rect id="Rectangle_302" data-name="Rectangle 302" class="cls-1" x="14.88" y="21.68" width="1.33" height="1.33"/><rect id="Rectangle_303" data-name="Rectangle 303" class="cls-1" x="17.54" y="21.68" width="1.33" height="1.33"/><rect id="Rectangle_304" data-name="Rectangle 304" class="cls-1" x="20.2" y="21.68" width="1.33" height="1.33"/><rect id="Rectangle_305" data-name="Rectangle 305" class="cls-1" x="22.86" y="21.68" width="1.33" height="1.33"/><rect id="Rectangle_306" data-name="Rectangle 306" class="cls-1" x="25.52" y="21.68" width="1.33" height="1.33"/><rect id="Rectangle_307" data-name="Rectangle 307" class="cls-1" x="12.21" y="24.34" width="1.33" height="1.33"/><rect id="Rectangle_308" data-name="Rectangle 308" class="cls-1" x="14.88" y="24.34" width="1.33" height="1.33"/><rect id="Rectangle_309" data-name="Rectangle 309" class="cls-1" x="17.54" y="24.34" width="1.33" height="1.33"/><rect id="Rectangle_310" data-name="Rectangle 310" class="cls-1" x="20.2" y="24.34" width="1.33" height="1.33"/><rect id="Rectangle_311" data-name="Rectangle 311" class="cls-1" x="22.86" y="24.34" width="1.33" height="1.33"/><rect id="Rectangle_312" data-name="Rectangle 312" class="cls-1" x="25.52" y="24.34" width="1.33" height="1.33"/><path id="Path_6181" data-name="Path 6181" class="cls-1" d="M15.54,18.52A1.5,1.5,0,1,0,14,17,1.5,1.5,0,0,0,15.54,18.52Zm0-2.66a1.17,1.17,0,1,1,0,2.33,1.17,1.17,0,0,1,0-2.33Z"/><path id="Path_6182" data-name="Path 6182" class="cls-1" d="M20.86,23.84a1.5,1.5,0,1,0-1.49-1.49h0A1.49,1.49,0,0,0,20.86,23.84Zm0-2.66a1.17,1.17,0,1,1-1.16,1.17A1.17,1.17,0,0,1,20.86,21.18Z"/><rect id="Rectangle_313" data-name="Rectangle 313" class="cls-1" x="12.55" y="8.37" width="0.67" height="3.33"/></g><g id="Group_5005" data-name="Group 5005"><path id="Path_6379" data-name="Path 6379" class="cls-1" d="M23,6.84h-1.1a4.37,4.37,0,0,0-3.64-1.77,4.65,4.65,0,0,0-1.73.31l-.35.14L16,5.21A5.74,5.74,0,0,0,11.32,3C8.33,3,5.9,5,5.9,7.54v.19l0,.33-.32.13a3.2,3.2,0,0,0-2.16,2.87,3.33,3.33,0,0,0,2.88,3.09l-.19.93a4.26,4.26,0,0,1-3.64-4A4.09,4.09,0,0,1,5,7.44C5,4.43,7.84,2,11.32,2a6.74,6.74,0,0,1,5.23,2.37,5.88,5.88,0,0,1,1.72-.26h0A5.24,5.24,0,0,1,23,6.84Z"/></g></g></svg>