<svg id="Layer_1" data-name="Layer 1" xmlns="http://www.w3.org/2000/svg" viewBox="0 0 32 32"><defs><style>.cls-1{fill:#6d6d6d;}.cls-2{fill:#707070;}</style></defs><title>library</title><g id="Group_5080" data-name="Group 5080"><g id="Group_5075" data-name="Group 5075"><g id="Group_5071" data-name="Group 5071"><g id="Group_4947" data-name="Group 4947"><g id="Path_6329" data-name="Path 6329"><path class="cls-1" d="M27.57,28.23H10.76A1.61,1.61,0,0,1,9,26.54L8.3,16.81a1.7,1.7,0,0,1,.32-1.34A1.63,1.63,0,0,1,9.88,15H28.39a1.7,1.7,0,0,1,1.29.43,1.53,1.53,0,0,1,.3,1.24l-.64,9.86A1.6,1.6,0,0,1,27.57,28.23ZM9.6,16.36a1.19,1.19,0,0,0,0,.35l.69,9.73c0,.45,0,.49.47.49H27.57c.42,0,.42,0,.47-.49l.64-9.84c0-.12,0-.2,0-.25a1.7,1.7,0,0,0-.3,0H9.88A1.05,1.05,0,0,0,9.6,16.36Z"/></g><g id="Group_4947-2" data-name="Group 4947-2"><g id="Path_6330" data-name="Path 6330"><path class="cls-1" d="M28.75,14.63H9.52l0-.5c0-.34.22-2.51.29-3.37.12-1.31.84-1.31,1.61-1.3h4.25c1.23,0,1.42,0,2,.62l.26.3c.72.77.73.78,1.73.78h7.72c.84,0,1.23.39,1.26,1.25Zm-18.23-.92H27.79l-.06-1.26c0-.28-.06-.34-.06-.34a.79.79,0,0,0-.29,0H19.7A2.47,2.47,0,0,1,17.26,11L17,10.68c-.18-.21-.22-.25-.28-.26a4.46,4.46,0,0,0-1,0H11.45a2.14,2.14,0,0,0-.59,0s-.06.07-.09.43C10.71,11.5,10.58,12.93,10.52,13.71Z"/></g></g></g></g><g id="Group_5070" data-name="Group 5070"><g id="Path_6379" data-name="Path 6379"><path class="cls-1" d="M23.07,8.73H22a4.52,4.52,0,0,0-3.74-1.82,4.93,4.93,0,0,0-1.78.33l-.35.13-.22-.31a5.87,5.87,0,0,0-4.8-2.32C8,4.74,5.5,6.86,5.5,9.45a1.15,1.15,0,0,0,0,.19V10l-.32.13a3.28,3.28,0,0,0-2.22,3,3.42,3.42,0,0,0,2.95,3.17l-.19,1A4.38,4.38,0,0,1,2,13.07,4.19,4.19,0,0,1,4.53,9.35c.06-3.09,3-5.58,6.53-5.58A6.91,6.91,0,0,1,16.43,6.2a5.87,5.87,0,0,1,1.76-.27h0A5.36,5.36,0,0,1,23.07,8.73Z"/></g></g><g id="Group_5073" data-name="Group 5073"><g id="Rectangle_411" data-name="Rectangle 411"><rect class="cls-2" x="14.91" y="21.1" width="8.64" height="1.7" transform="translate(-5.99 36.64) rotate(-79)"/></g><g id="Rectangle_412" data-name="Rectangle 412"><rect class="cls-2" x="18.31" y="21.1" width="8.64" height="1.7" transform="translate(-3.24 39.98) rotate(-79)"/></g><g id="Rectangle_413" data-name="Rectangle 413"><rect class="cls-2" x="21.58" y="21.1" width="8.64" height="1.7" transform="translate(-0.59 43.19) rotate(-79)"/></g></g><g id="Group_5074" data-name="Group 5074"><g id="Rectangle_414" data-name="Rectangle 414"><rect class="cls-2" x="11.16" y="18.29" width="6.41" height="0.79"/><path class="cls-2" d="M17.57,19.07H11.16v-.78h6.41Zm-6.28-.13h6.15v-.52H11.29Z"/></g><g id="Rectangle_415" data-name="Rectangle 415"><rect class="cls-2" x="11.16" y="21.56" width="4.97" height="0.79"/><path class="cls-2" d="M16.13,22.35h-5v-.79h5Zm-4.84-.13H16v-.53H11.29Z"/></g><g id="Rectangle_416" data-name="Rectangle 416"><rect class="cls-2" x="11.16" y="24.83" width="3.66" height="0.79"/><path class="cls-2" d="M14.82,25.62H11.16v-.79h3.66Zm-3.53-.13h3.4V25h-3.4Z"/></g></g></g></g></svg>