<svg id="Layer_1" data-name="Layer 1" xmlns="http://www.w3.org/2000/svg" viewBox="0 0 32 32"><defs><style>.cls-1{fill:#004b8c;}.cls-2{fill:#fff;}</style></defs><title>matter-list</title><g id="Group_5086" data-name="Group 5086"><g id="Group_5068" data-name="Group 5068"><g id="Group_4947" data-name="Group 4947"><g id="Path_6329" data-name="Path 6329"><path class="cls-1" d="M27.57,28.23H10.76A1.61,1.61,0,0,1,9,26.54L8.3,16.81a1.7,1.7,0,0,1,.32-1.34A1.63,1.63,0,0,1,9.88,15H28.39a1.7,1.7,0,0,1,1.29.43,1.53,1.53,0,0,1,.3,1.24l-.64,9.86A1.6,1.6,0,0,1,27.57,28.23ZM9.6,16.36a1.19,1.19,0,0,0,0,.35l.69,9.73c0,.45,0,.49.47.49H27.57c.42,0,.42,0,.47-.49l.64-9.84c0-.12,0-.2,0-.25a1.7,1.7,0,0,0-.3,0H9.88A1.05,1.05,0,0,0,9.6,16.36Z"/></g><g id="Group_4947-2" data-name="Group 4947-2"><g id="Path_6330" data-name="Path 6330"><path class="cls-1" d="M28.75,14.63H9.52l0-.5c0-.32.21-2.48.29-3.37.12-1.31.84-1.31,1.61-1.3h4.3c1.19,0,1.38,0,1.91.62l.26.3c.72.77.73.78,1.73.78h7.72c.84,0,1.23.39,1.26,1.25Zm-18.23-.92H27.79l-.06-1.26c0-.28-.06-.34-.06-.34a.79.79,0,0,0-.29,0H19.7A2.47,2.47,0,0,1,17.26,11L17,10.68c-.18-.21-.22-.25-.28-.26a5.25,5.25,0,0,0-1,0H11.45a2.14,2.14,0,0,0-.59,0s-.06.07-.09.43C10.7,11.52,10.58,12.94,10.52,13.71Z"/></g></g></g></g><g id="Group_5069" data-name="Group 5069"><g id="Path_6379" data-name="Path 6379"><path class="cls-1" d="M23.07,8.73H22a4.52,4.52,0,0,0-3.74-1.82,4.93,4.93,0,0,0-1.78.33l-.35.13-.22-.31a5.87,5.87,0,0,0-4.8-2.32C8,4.74,5.5,6.86,5.5,9.45a1.15,1.15,0,0,0,0,.19V10l-.32.13a3.28,3.28,0,0,0-2.22,3,3.42,3.42,0,0,0,2.95,3.17l-.19,1A4.38,4.38,0,0,1,2,13.07,4.19,4.19,0,0,1,4.53,9.35c.06-3.09,3-5.58,6.53-5.58A6.91,6.91,0,0,1,16.43,6.2a5.87,5.87,0,0,1,1.76-.27h0A5.36,5.36,0,0,1,23.07,8.73Z"/></g></g><g id="Group_5047" data-name="Group 5047"><g id="Rectangle_428" data-name="Rectangle 428"><rect class="cls-2" x="11.81" y="17.32" width="2.23" height="2.23"/><path class="cls-1" d="M14,19.55H11.81V17.32H14Zm-1.57-.65h.92V18h-.92Z"/></g><g id="Rectangle_429" data-name="Rectangle 429"><rect class="cls-2" x="11.81" y="20.45" width="2.23" height="2.23"/><path class="cls-1" d="M14,22.68H11.81V20.45H14ZM12.47,22h.92V21.1h-.92Z"/></g><g id="Rectangle_430" data-name="Rectangle 430"><rect class="cls-2" x="11.81" y="23.57" width="2.23" height="2.23"/><path class="cls-1" d="M14,25.8H11.81V23.57H14Zm-1.57-.66h.92v-.92h-.92Z"/></g><g id="Path_6390" data-name="Path 6390"><path class="cls-1" d="M26.86,18.83H16.05a.39.39,0,1,1,0-.78H26.86a.39.39,0,0,1,0,.78Z"/></g><g id="Path_6391" data-name="Path 6391"><path class="cls-1" d="M26.86,22H16.05a.39.39,0,1,1,0-.78H26.86a.39.39,0,1,1,0,.78Z"/></g><g id="Path_6392" data-name="Path 6392"><path class="cls-1" d="M26.86,25.08H16.05a.4.4,0,1,1,0-.79H26.86a.4.4,0,0,1,0,.79Z"/></g></g></g></svg>