<svg id="Layer_1" data-name="Layer 1" xmlns="http://www.w3.org/2000/svg" viewBox="0 0 32 32"><title>task-fill</title><path d="M9.65,8.24h-3v3h3ZM9,10.62H7.3V8.89H9Z" fill="#258551"/><path d="M9.65,14.55h-3v3h3ZM9,16.94H7.3V15.21H9Z" fill="#258551"/><path d="M2,3.85v24.3H30V3.85Zm8.1,20.57H5.89v-4.2H10.1Zm.16-6.3H6.05V13.91h4.21Zm0-6.32H6.05V7.6h4.21Zm1.15-3H25.9v1.78H11.41ZM26,23.14H11.54V21.36H26Zm.17-6.31H11.71V15.05H26.2Z" fill="#258551"/><path d="M9.48,20.87h-3v3h3Zm-.61,2.39H7.13V21.52H8.87Z" fill="#258551"/></svg>