<svg id="Layer_1" data-name="Layer 1" xmlns="http://www.w3.org/2000/svg" viewBox="0 0 32 32"><defs><style>.cls-1{fill:#b1510f;}.cls-2{fill:#fff;}</style></defs><title>contact</title><g id="Group_5079" data-name="Group 5079"><g id="Group_5063" data-name="Group 5063"><g id="Group_5008" data-name="Group 5008"><g id="Path_6379" data-name="Path 6379"><path class="cls-1" d="M22.5,8.13H21.4a4.37,4.37,0,0,0-3.63-1.77A4.65,4.65,0,0,0,16,6.67l-.35.14-.21-.31a5.69,5.69,0,0,0-4.66-2.25c-3,0-5.42,2.05-5.42,4.58,0,.06,0,.12,0,.18v.34l-.31.13A3.2,3.2,0,0,0,3,12.34a3.33,3.33,0,0,0,2.88,3.09l-.2.93a4.27,4.27,0,0,1-3.63-4A4.06,4.06,0,0,1,4.46,8.73c.06-3,2.89-5.43,6.36-5.43A6.74,6.74,0,0,1,16,5.67a5.5,5.5,0,0,1,1.71-.26h0A5.23,5.23,0,0,1,22.5,8.13Z"/></g></g><g id="Group_5018" data-name="Group 5018"><g id="Group_5022" data-name="Group 5022"><g id="Group_5018-2" data-name="Group 5018-2"><g id="Path_6384" data-name="Path 6384"><path class="cls-1" d="M8.79,16v1.56h1.7V16Zm0-6.44v4.19h1.7V10.85H28.3V27.39H10.49V23.58H8.79V28.7H30V9.53Zm1.7,10.24H8.79v1.57h1.7Z"/></g></g></g><g id="Group_5025" data-name="Group 5025"><g id="Group_5023" data-name="Group 5023"><g id="Rectangle_391" data-name="Rectangle 391"><path class="cls-1" d="M16.37,18.89h0a3.91,3.91,0,0,1,3.9,3.9h0v1.06h-7.8V22.79A3.9,3.9,0,0,1,16.37,18.89Z"/></g></g><g id="Group_5024" data-name="Group 5024"><g id="Ellipse_106" data-name="Ellipse 106"><circle class="cls-1" cx="16.37" cy="17.03" r="2.21"/><path class="cls-2" d="M16.37,19.55A2.53,2.53,0,1,1,18.89,17,2.53,2.53,0,0,1,16.37,19.55Zm0-4.41A1.89,1.89,0,1,0,18.26,17,1.89,1.89,0,0,0,16.37,15.14Z"/></g></g></g></g><g id="Group_5031" data-name="Group 5031"><g id="Path_6388" data-name="Path 6388"><rect class="cls-1" x="21.41" y="16.66" width="6.17" height="1.27"/></g><g id="Path_6389" data-name="Path 6389"><rect class="cls-1" x="21.41" y="20.27" width="4.88" height="1.27"/></g></g></g></g></svg>