<svg id="Layer_1" data-name="Layer 1" xmlns="http://www.w3.org/2000/svg" viewBox="0 0 32 32"><defs><style>.cls-1{fill:#03a9f4;}</style></defs><title>email</title><g id="Group_5083" data-name="Group 5083"><g id="Group_4979" data-name="Group 4979"><g id="Group"><g id="Shape"><path class="cls-1" d="M9.63,27.58a1.85,1.85,0,0,1-1.29-.53l-.25-.24,8.12-7.26L18.88,22l2.67-2.43,8.11,7.25-.25.24a1.87,1.87,0,0,1-1.29.54Zm-.55-.79a1.18,1.18,0,0,0,.55.14H28.12a1.19,1.19,0,0,0,.56-.14l-7.13-6.37-2.67,2.44L16.2,20.42ZM30,26.66l-8.26-7.33L30,11.83Zm-7.29-7.34,6.64,5.9V13.29ZM7.76,26.66V11.83L16,19.33ZM8.4,13.29V25.22l6.65-5.9Zm10.48,8L8.1,11.6l.24-.24a1.85,1.85,0,0,1,1.29-.53H28.12a1.85,1.85,0,0,1,1.3.52l.24.25Zm-9.8-9.63,9.8,8.77,9.8-8.77a1.19,1.19,0,0,0-.56-.14H9.63A1.18,1.18,0,0,0,9.08,11.61Z"/></g></g></g><g id="Group_4998" data-name="Group 4998"><g id="Path_6379" data-name="Path 6379"><path class="cls-1" d="M22.83,9.33H21.72A4.48,4.48,0,0,0,18,7.53a5,5,0,0,0-1.76.32L15.91,8l-.21-.31A5.81,5.81,0,0,0,11,5.39c-3,0-5.5,2.09-5.5,4.65v.19l0,.34-.32.13A3.26,3.26,0,0,0,3,13.62a3.38,3.38,0,0,0,2.93,3.13l-.2.95A4.34,4.34,0,0,1,2,13.62,4.15,4.15,0,0,1,4.5,9.94c.06-3,2.93-5.52,6.46-5.52a6.86,6.86,0,0,1,5.31,2.41A6,6,0,0,1,18,6.57h0A5.31,5.31,0,0,1,22.83,9.33Z"/></g></g></g></svg>