<svg id="Layer_1" data-name="Layer 1" xmlns="http://www.w3.org/2000/svg" viewBox="0 0 32 32"><defs><style>.cls-1{fill:#e878b7;}</style></defs><title>finance</title><g id="Group_5081" data-name="Group 5081"><g id="Group_5010" data-name="Group 5010"><g id="Path_6379" data-name="Path 6379"><path class="cls-1" d="M22,8.4H20.88a4.27,4.27,0,0,0-3.53-1.72A4.64,4.64,0,0,0,15.66,7l-.34.13-.2-.3a5.57,5.57,0,0,0-4.54-2.2c-2.9,0-5.27,2-5.27,4.46a1.09,1.09,0,0,0,0,.18v.33L5,9.71A3.12,3.12,0,0,0,2.92,12.5a3.26,3.26,0,0,0,2.8,3l-.18.9A4.15,4.15,0,0,1,2,12.5,4,4,0,0,1,4.39,9C4.45,6.06,7.2,3.7,10.58,3.7A6.55,6.55,0,0,1,15.66,6a5.55,5.55,0,0,1,1.67-.26h0A5.1,5.1,0,0,1,22,8.4Z"/></g></g><g id="Group_5003" data-name="Group 5003"><g id="Group_4986" data-name="Group 4986"><g id="Group_4985" data-name="Group 4985"><g id="Path_6357" data-name="Path 6357"><path class="cls-1" d="M9.38,28.3H29.65c.19,0,.35-.21.35-.48s-.16-.48-.35-.48h-.86V10.58c0-.26-.16-.48-.36-.48H25c-.2,0-.36.22-.36.48V27.34H23.41V22.21c0-.27-.16-.48-.35-.48s-.36.21-.36.48v5.13H21V13.5c0-.27-.15-.48-.35-.48H17.16c-.19,0-.35.21-.35.48V27.34H15.37V22.21c0-.27-.16-.48-.35-.48s-.36.21-.36.48v5.13H13.22V15.85c0-.27-.15-.48-.35-.48H9.38c-.19,0-.35.21-.35.48V27.34H8.17c-.2,0-.35.21-.35.48s.15.48.35.48Z"/></g></g></g></g><g id="Path_6386" data-name="Path 6386"><rect class="cls-1" x="7.66" y="10.02" width="13.36" height="0.62"/></g><g id="Path_6386-2" data-name="Path 6386-2"><rect class="cls-1" x="7.66" y="12.87" width="5.74" height="0.62"/></g></g></svg>