<svg id="Layer_1" data-name="Layer 1" xmlns="http://www.w3.org/2000/svg" viewBox="0 0 32 32"><defs><style>.cls-1{fill:#004b8c;}</style></defs><title>matter</title><g id="Group_5085" data-name="Group 5085"><g id="Group_4948" data-name="Group 4948"><g id="Group_4947" data-name="Group 4947"><g id="Path_6329" data-name="Path 6329"><path class="cls-1" d="M27.57,28.23H10.76A1.61,1.61,0,0,1,9,26.54L8.3,16.81a1.7,1.7,0,0,1,.32-1.34A1.63,1.63,0,0,1,9.88,15H28.39a1.7,1.7,0,0,1,1.29.43,1.53,1.53,0,0,1,.3,1.24l-.64,9.86A1.6,1.6,0,0,1,27.57,28.23ZM9.6,16.36a1.19,1.19,0,0,0,0,.35l.69,9.73c0,.45,0,.49.47.49H27.57c.42,0,.42,0,.47-.49l.64-9.84c0-.12,0-.2,0-.25a1.7,1.7,0,0,0-.3,0H9.88A1.05,1.05,0,0,0,9.6,16.36Z"/></g><g id="Group_4947-2" data-name="Group 4947-2"><g id="Path_6330" data-name="Path 6330"><path class="cls-1" d="M28.75,14.63H9.52l0-.5c0-.34.22-2.51.29-3.37.12-1.31.84-1.31,1.61-1.3h4.25c1.23,0,1.42,0,2,.62l.26.3c.72.77.73.78,1.73.78h7.72c.84,0,1.23.39,1.26,1.25Zm-18.23-.92H27.79l-.06-1.26c0-.28-.06-.34-.06-.34a.79.79,0,0,0-.29,0H19.7A2.47,2.47,0,0,1,17.26,11L17,10.68c-.18-.21-.22-.25-.28-.26a4.46,4.46,0,0,0-1,0H11.45a2.14,2.14,0,0,0-.59,0s-.06.07-.09.43C10.71,11.5,10.58,12.93,10.52,13.71Z"/></g></g></g></g><g id="Group_4996" data-name="Group 4996"><g id="Path_6379" data-name="Path 6379"><path class="cls-1" d="M23.07,8.73H22a4.52,4.52,0,0,0-3.74-1.82,4.93,4.93,0,0,0-1.78.33l-.35.13-.22-.31a5.87,5.87,0,0,0-4.8-2.32C8,4.74,5.5,6.86,5.5,9.45a1.15,1.15,0,0,0,0,.19V10l-.32.13a3.28,3.28,0,0,0-2.22,3,3.42,3.42,0,0,0,2.95,3.17l-.19,1A4.38,4.38,0,0,1,2,13.07,4.19,4.19,0,0,1,4.53,9.35c.06-3.09,3-5.58,6.53-5.58A6.91,6.91,0,0,1,16.43,6.2a5.87,5.87,0,0,1,1.76-.27h0A5.36,5.36,0,0,1,23.07,8.73Z"/></g></g></g></svg>