<svg id="Layer_1" data-name="Layer 1" xmlns="http://www.w3.org/2000/svg" viewBox="0 0 32 32"><title>task-Outline</title><rect x="2" y="3.85" width="28" height="24.3" fill="none"/><path d="M30,28.15H2V3.85H30ZM3.63,26.52H28.37v-21H3.63Z" fill="#258551"/><g id="Rectangle_393" data-name="Rectangle 393"><rect x="6.07" y="7.6" width="4.21" height="4.21" fill="#258551"/></g><g id="Rectangle_396" data-name="Rectangle 396"><rect x="11.71" y="8.73" width="14.49" height="1.78" fill="#258551"/></g><g id="Rectangle_399" data-name="Rectangle 399"><rect x="6.7" y="8.24" width="2.96" height="2.96" fill="#fff"/></g><g id="Rectangle_402" data-name="Rectangle 402"><rect x="7.31" y="8.89" width="1.73" height="1.73" fill="#258551"/></g><g id="Rectangle_393-2" data-name="Rectangle 393-2"><rect x="6.07" y="13.92" width="4.21" height="4.21" fill="#258551"/></g><g id="Rectangle_396-2" data-name="Rectangle 396-2"><rect x="11.71" y="15.05" width="14.49" height="1.78" fill="#258551"/></g><g id="Rectangle_399-2" data-name="Rectangle 399-2"><rect x="6.7" y="14.56" width="2.96" height="2.96" fill="#fff"/></g><g id="Rectangle_402-2" data-name="Rectangle 402-2"><rect x="7.31" y="15.21" width="1.73" height="1.73" fill="#258551"/></g><g id="Rectangle_393-3" data-name="Rectangle 393-3"><rect x="5.9" y="20.22" width="4.21" height="4.21" fill="#258551"/></g><g id="Rectangle_396-3" data-name="Rectangle 396-3"><rect x="11.54" y="21.36" width="14.49" height="1.78" fill="#258551"/></g><g id="Rectangle_399-3" data-name="Rectangle 399-3"><rect x="6.53" y="20.87" width="2.96" height="2.96" fill="#fff"/></g><g id="Rectangle_402-3" data-name="Rectangle 402-3"><rect x="7.15" y="21.52" width="1.73" height="1.73" fill="#258551"/></g></svg>