<svg id="Layer_1" data-name="Layer 1" xmlns="http://www.w3.org/2000/svg" viewBox="0 0 32 32"><defs><style>.cls-1{fill:#248450;}.cls-2{fill:none;}.cls-3{fill:#fff;}</style></defs><title>task</title><g id="Group_5084" data-name="Group 5084"><g id="Group_5064" data-name="Group 5064"><g id="Group_4997" data-name="Group 4997"><g id="Path_6379" data-name="Path 6379"><path class="cls-1" d="M22.88,7.76H21.76A4.47,4.47,0,0,0,18.06,6a4.61,4.61,0,0,0-1.76.32L16,6.41l-.22-.3A5.8,5.8,0,0,0,11,3.81c-3,0-5.51,2.09-5.51,4.66v.19l0,.35-.32.12A3.26,3.26,0,0,0,3,12.06,3.39,3.39,0,0,0,5.9,15.2l-.2.94A4.32,4.32,0,0,1,2,12.06,4.17,4.17,0,0,1,4.5,8.37c.07-3.06,3-5.53,6.48-5.53A6.88,6.88,0,0,1,16.3,5.25,6.06,6.06,0,0,1,18,5h0A5.32,5.32,0,0,1,22.88,7.76Z"/></g></g><g id="Group_5076" data-name="Group 5076"><g id="Rectangle_409" data-name="Rectangle 409"><rect class="cls-2" x="7.7" y="9.8" width="22.3" height="19.35"/><path class="cls-1" d="M30,29.16H7.7V9.8H30ZM9,27.86H28.7V11.1H9Z"/></g><g id="Group_5088" data-name="Group 5088"><g id="Group_5088-2" data-name="Group 5088-2"><g id="Group_5028" data-name="Group 5028"><g id="Rectangle_393" data-name="Rectangle 393"><rect class="cls-1" x="10.94" y="12.79" width="3.35" height="3.35"/></g><g id="Rectangle_396" data-name="Rectangle 396"><rect class="cls-1" x="15.43" y="13.69" width="11.54" height="1.42"/></g><g id="Rectangle_399" data-name="Rectangle 399"><rect class="cls-3" x="11.44" y="13.3" width="2.36" height="2.36"/></g><g id="Rectangle_402" data-name="Rectangle 402"><rect class="cls-1" x="11.93" y="13.82" width="1.38" height="1.38"/></g></g></g><g id="Group_5089" data-name="Group 5089"><g id="Group_5028-2" data-name="Group 5028-2"><g id="Rectangle_393-2" data-name="Rectangle 393-2"><rect class="cls-1" x="10.94" y="17.82" width="3.35" height="3.35"/></g><g id="Rectangle_396-2" data-name="Rectangle 396-2"><rect class="cls-1" x="15.43" y="18.72" width="11.54" height="1.42"/></g><g id="Rectangle_399-2" data-name="Rectangle 399-2"><rect class="cls-3" x="11.44" y="18.33" width="2.36" height="2.36"/></g><g id="Rectangle_402-2" data-name="Rectangle 402-2"><rect class="cls-1" x="11.93" y="18.85" width="1.38" height="1.38"/></g></g></g><g id="Group_5090" data-name="Group 5090"><g id="Group_5028-3" data-name="Group 5028-3"><g id="Rectangle_393-3" data-name="Rectangle 393-3"><rect class="cls-1" x="10.81" y="22.84" width="3.35" height="3.35"/></g><g id="Rectangle_396-3" data-name="Rectangle 396-3"><rect class="cls-1" x="15.3" y="23.75" width="11.54" height="1.42"/></g><g id="Rectangle_399-3" data-name="Rectangle 399-3"><rect class="cls-3" x="11.31" y="23.36" width="2.36" height="2.36"/></g><g id="Rectangle_402-3" data-name="Rectangle 402-3"><rect class="cls-1" x="11.8" y="23.88" width="1.38" height="1.38"/></g></g></g></g></g></g></g></svg>